<svg t="1708411891160" class="icon" viewBox="0 0 1024 1024" version="1.1" xmlns="http://www.w3.org/2000/svg" p-id="4346" width="200" height="200"><path d="M1000.12067293 23.87932707H23.87932707v976.24134586h976.24134586V23.87932707zM645.41964997 731.65430282H528.27068846v-115.52189324c45.55792885-6.508275 81.35344611-42.30379228 87.86172112-87.86172112h115.52189324v115.52189321c-43.93086055 8.13534518-79.72637594 43.93086055-86.23465285 87.86172115zM407.86759042 495.72931154h-115.52189324v-115.52189321c45.55792885-6.508275 81.35344611-42.30379228 87.86172115-87.86172115h27.66017209c6.508275 45.55792885 42.30379228 81.35344611 87.86172112 87.86172115v27.66017209c-45.55792885 6.508275-81.35344611 42.30379228-87.86172112 87.86172112zM512 186.58621742c48.81206729 0 89.48878941 40.6767221 89.48878941 89.48879129S560.81206729 365.56379815 512 365.56379815s-89.48878941-40.6767221-89.48878941-89.48878944S463.18793271 186.58621742 512 186.58621742z m219.65430282 105.75947976V495.72931154h-115.52189324c-6.508275-45.55792885-42.30379228-81.35344611-87.86172112-87.86172112v-27.66017209c45.55792885-6.508275 81.35344611-42.30379228 87.86172112-87.86172115h115.52189324zM749.55206146 658.43620185c48.81206729 0 89.48878941 40.6767221 89.48878939 89.48878944S798.36412876 837.41378258 749.55206146 837.41378258s-89.48878941-40.6767221-89.48879129-89.48879129 39.04965382-89.48878941 89.48879129-89.48878944z m-17.89775864-602.01549594v203.38361246h-115.52189324c-6.508275-45.55792885-42.30379228-81.35344611-87.86172112-87.86172112V56.42070591h203.38361436zM495.72931154 56.42070591v115.52189134c-45.55792885 6.508275-81.35344611 42.30379228-87.86172112 87.86172112h-27.66017209c-6.508275-45.55792885-42.30379228-81.35344611-87.86172115-87.86172112V56.42070591H495.72931154z m-439.30860563 0h203.38361246v115.52189134c-45.55792885 6.508275-81.35344611 42.30379228-87.86172112 87.86172112H56.42070591V56.42070591z m203.38361246 911.15858818H56.42070591V764.19568163h203.38361246V967.57929409z m0-235.92499127H56.42070591V528.27068846h203.38361246v203.38361436zM56.42070591 495.72931154V292.34569718h115.52189134c6.508275 45.55792885 42.30379228 81.35344611 87.86172112 87.86172115V495.72931154H56.42070591z m439.30860563 471.84998255H292.34569718V764.19568163H495.72931154V967.57929409zM292.34569718 731.65430282V528.27068846h115.52189324c6.508275 45.55792885 42.30379228 81.35344611 87.86172112 87.86172112v115.52189324H292.34569718z m439.30860564 235.92499127H528.27068846V764.19568163h117.14896151c6.508275 45.55792885 42.30379228 81.35344611 87.86172112 87.86172112V967.57929409zM967.57929409 967.57929409H764.19568163v-115.52189134c45.55792885-6.508275 81.35344611-42.30379228 89.4887894-87.86172112h113.89482306V967.57929409z m0-235.92499127h-113.89482306c-6.508275-45.55792885-43.93086055-81.35344611-89.4887894-87.86172115V528.27068846H967.57929409v203.38361436zM967.57929409 495.72931154H764.19568163V292.34569718H967.57929409V495.72931154z m0-235.92499317H764.19568163V56.42070591H967.57929409v203.38361246z" fill="#000000" p-id="4347"></path></svg>